# xmcd
#
# Track frame offsets:
#	150
#	16284
#	31055
#	47791
#	66565
#	85905
#	101690
#	118829
#	138115
#	153216
#	170572
#	188041
#
# Disc length: 2718 seconds
#
# Revision: 2
# Processed by: cddbd v1.5.2PL0 Copyright (c) Steve Scherf et al.
# Submitted via: audiograbber 1.83.01
#
DISCID=9a0a9c0c
DTITLE=Damien Leith - Where We Land
DYEAR=2007
DGENRE=Pop
TTITLE0=22 Steps
TTITLE1=All I Want Is You
TTITLE2=Beautiful
TTITLE3=Shine Like The Sun
TTITLE4=I Still Miss Us
TTITLE5=The Long Way Back
TTITLE6=Not Just For The Weekend
TTITLE7=Songbird
TTITLE8=Blew It All Away
TTITLE9=Alone
TTITLE10=Cold Cold Heart
TTITLE11=Danny Boy
EXTD=
EXTT0=
EXTT1=
EXTT2=
EXTT3=
EXTT4=
EXTT5=
EXTT6=
EXTT7=
EXTT8=
EXTT9=
EXTT10=
EXTT11=
PLAYORDER=
